<svg xmlns="http://www.w3.org/2000/svg" width="960" height="640" viewBox="0 0 960 640" role="img" aria-label="Portfolio workspace app sample">
  <defs>
    <linearGradient id="heroBg" x1="54" y1="38" x2="898" y2="601" gradientUnits="userSpaceOnUse">
      <stop stop-color="#FFF7ED"/>
      <stop offset="0.45" stop-color="#F8FAFC"/>
      <stop offset="1" stop-color="#FCE7F3"/>
    </linearGradient>
    <linearGradient id="screen" x1="210" y1="142" x2="732" y2="478" gradientUnits="userSpaceOnUse">
      <stop stop-color="#BE123C"/>
      <stop offset="1" stop-color="#F59E0B"/>
    </linearGradient>
  </defs>
  <rect width="960" height="640" rx="42" fill="url(#heroBg)"/>
  <circle cx="820" cy="106" r="82" fill="#F59E0B" opacity="0.16"/>
  <circle cx="132" cy="532" r="116" fill="#BE123C" opacity="0.08"/>
  <rect x="120" y="116" width="720" height="424" rx="36" fill="#FFFFFF" stroke="#E5E7EB" stroke-width="2"/>
  <rect x="160" y="164" width="296" height="328" rx="26" fill="#18181B"/>
  <rect x="198" y="210" width="170" height="20" rx="10" fill="#FFFFFF"/>
  <rect x="198" y="254" width="218" height="12" rx="6" fill="#71717A"/>
  <rect x="198" y="282" width="184" height="12" rx="6" fill="#71717A"/>
  <rect x="198" y="336" width="90" height="90" rx="22" fill="#BE123C"/>
  <rect x="308" y="336" width="90" height="90" rx="22" fill="#F59E0B"/>
  <rect x="496" y="164" width="276" height="146" rx="28" fill="url(#screen)"/>
  <rect x="536" y="204" width="146" height="18" rx="9" fill="#FFFFFF"/>
  <rect x="536" y="238" width="194" height="10" rx="5" fill="#FFFFFF" opacity="0.65"/>
  <rect x="496" y="334" width="124" height="158" rx="24" fill="#F8FAFC" stroke="#E5E7EB"/>
  <rect x="648" y="334" width="124" height="158" rx="24" fill="#F8FAFC" stroke="#E5E7EB"/>
  <rect x="526" y="374" width="64" height="64" rx="18" fill="#BE123C" opacity="0.15"/>
  <rect x="678" y="374" width="64" height="64" rx="18" fill="#F59E0B" opacity="0.18"/>
</svg>
