<svg width="234" height="241" viewBox="0 0 234 241" fill="none" xmlns="http://www.w3.org/2000/svg">
<path d="M205.932 145.825C230.732 141.025 231.932 90.4918 229.432 65.8252C209.032 -33.3748 149.265 1.15849 121.932 30.8252C121.532 50.8252 116.099 72.1585 113.432 80.3252L98.9321 110.325L44.9321 160.325L59.4321 196.825C96.6321 205.625 150.932 187.158 173.432 176.825C190.232 175.225 202.099 155.492 205.932 145.825Z" fill="#986A39"/>
<path d="M86.9321 126.825C78.5321 135.225 62.0988 150.325 54.9321 156.825L31.9321 169.325C32.3321 162.525 58.0988 139.825 70.9321 129.325C106.932 104.525 118.265 67.6585 119.432 52.3252C118.432 104.825 97.4321 116.325 86.9321 126.825Z" fill="#7F512C"/>
<path d="M211.432 166.825C237.032 131.625 234.765 82.8252 230.432 62.8252C226.832 107.625 214.599 132.159 208.932 138.825C208.532 135.625 204.765 131.159 202.932 129.325C196.132 155.325 187.432 163.159 183.932 163.825L180.432 157.825C167.232 184.625 107.599 191.992 79.4321 192.325L74.9321 202.325C130.132 209.125 168.265 189.492 180.432 178.825C183.632 178.825 184.099 185.825 183.932 189.325C191.532 184.125 202.432 162.825 206.932 152.825C211.332 154.825 211.765 162.992 211.432 166.825Z" fill="#7F512C"/>
<path d="M2.4321 220.825C-3.5679 219.225 2.9321 200.492 6.9321 191.325C-3.4679 188.925 2.59876 178.659 6.9321 173.825C29.7321 149.425 55.7654 152.659 65.9321 157.325C111.932 187.325 70.4321 213.325 59.9321 224.825C49.4321 236.325 52.9321 239.825 43.9321 240.825C36.7321 241.625 37.9321 227.825 39.4321 220.825C29.9321 225.825 26.9321 244.325 19.9321 235.825C14.3321 229.025 17.5988 215.992 19.9321 210.325C10.4321 212.325 9.9321 222.825 2.4321 220.825Z" fill="#543924"/>
</svg>
