<svg width="234" height="241" viewBox="0 0 234 241" fill="none" xmlns="http://www.w3.org/2000/svg">
<path d="M27.1895 145.825C2.38945 141.025 1.18945 90.4918 3.68945 65.8252C24.0894 -33.3748 83.8561 1.15849 111.189 30.8252C111.589 50.8252 117.023 72.1585 119.689 80.3252L134.189 110.325L188.189 160.325L173.689 196.825C136.489 205.625 82.1895 187.158 59.6895 176.825C42.8895 175.225 31.0228 155.492 27.1895 145.825Z" fill="#986A39"/>
<path d="M146.189 126.825C154.589 135.225 171.023 150.325 178.189 156.825L201.189 169.325C200.789 162.525 175.023 139.825 162.189 129.325C126.189 104.525 114.856 67.6585 113.689 52.3252C114.689 104.825 135.689 116.325 146.189 126.825Z" fill="#7F512C"/>
<path d="M21.6894 166.825C-3.91056 131.625 -1.64389 82.8252 2.68944 62.8252C6.28943 107.625 18.5228 132.159 24.1895 138.825C24.5895 135.625 28.3561 131.159 30.1895 129.325C36.9895 155.325 45.6895 163.159 49.1895 163.825L52.6895 157.825C65.8895 184.625 125.523 191.992 153.689 192.325L158.189 202.325C102.989 209.125 64.8561 189.492 52.6895 178.825C49.4895 178.825 49.0228 185.825 49.1895 189.325C41.5895 184.125 30.6895 162.825 26.1895 152.825C21.7895 154.825 21.3561 162.992 21.6894 166.825Z" fill="#7F512C"/>
<path d="M230.689 220.825C236.689 219.225 230.189 200.492 226.189 191.325C236.589 188.925 230.523 178.659 226.189 173.825C203.389 149.425 177.356 152.659 167.189 157.325C121.189 187.325 162.689 213.325 173.189 224.825C183.689 236.325 180.189 239.825 189.189 240.825C196.389 241.625 195.189 227.825 193.689 220.825C203.189 225.825 206.189 244.325 213.189 235.825C218.789 229.025 215.523 215.992 213.189 210.325C222.689 212.325 223.189 222.825 230.689 220.825Z" fill="#543924"/>
</svg>
