<svg width="569" height="749" viewBox="0 0 569 749" fill="none" xmlns="http://www.w3.org/2000/svg">
<path d="M175.857 25C175.857 25 186.024 31.8333 187.857 35C157.457 39.8 122.524 85.6667 108.857 108C74.3569 161 58.8569 226.5 60.3569 224.5C61.5569 222.9 65.1902 220.833 66.8569 220C68.1902 220.167 70.3569 222.4 68.3569 230C66.3569 237.6 67.5236 248.833 68.3569 253.5C62.3569 291.5 41.3569 322.833 32.3569 330C38.7569 327.2 45.0236 327.5 47.3569 328C15.8569 377 3.3569 428 6.8569 423.5C9.6569 419.9 15.0236 417.667 17.3569 417C7.85689 437 -29.6431 627.5 48.3569 706C110.757 768.8 174.69 746.833 198.857 728C271.657 748.4 341.857 736.5 367.857 728C403.357 752 458.357 763 516.857 711C563.657 669.4 570.357 574.333 567.857 532C562.357 425.5 548.357 417 552.857 417C556.457 417 560.024 420.333 561.357 422C545.357 350.5 515.857 328 520.357 326.5C523.957 325.3 531.524 329 534.857 331C505.357 289.5 498.857 257 500.857 248.5C502.457 241.7 501.524 227.667 500.857 221.5C503.657 221.5 507.69 223.167 509.357 224C482.557 125.6 429.524 65.3333 406.357 47.5C395.857 34.5 340.857 22 327.357 21C316.557 20.2 288.857 6.66667 276.357 0C275.957 3.6 279.524 14.1667 281.357 19C281.357 19 236.19 6.66667 223.357 6C223.357 6 233.524 20.8333 232.857 22C232.857 22 184.857 23 175.857 25Z" fill="#986A39"/>
</svg>
