<svg width="496" height="92" viewBox="0 0 496 92" fill="none" xmlns="http://www.w3.org/2000/svg">
<path d="M3.6046 73C-11.5954 59.4 24.9379 21.3333 45.1046 4L144.605 0C155.771 11.8333 179.405 40.1 184.605 58.5C191.105 81.5 161.605 79.5 155.105 76.5C149.905 74.1 136.605 74.1667 130.605 74.5C119.105 79.5 94.6046 89.9 88.6046 91.5C82.6046 93.1 62.4379 79.8333 53.1046 73C22.7046 77.4 7.43794 74.8333 3.6046 73Z" fill="#553A25"/>
<path d="M491.534 73C506.734 59.4 470.201 21.3333 450.034 4L350.534 0C339.367 11.8333 315.734 40.1 310.534 58.5C304.034 81.5 333.534 79.5 340.034 76.5C345.234 74.1 358.534 74.1667 364.534 74.5C376.034 79.5 400.534 89.9 406.534 91.5C412.534 93.1 432.701 79.8333 442.034 73C472.434 77.4 487.701 74.8333 491.534 73Z" fill="#553A25"/>
</svg>
