<svg width="387" height="134" viewBox="0 0 387 134" fill="none" xmlns="http://www.w3.org/2000/svg">
<path d="M350.001 67C350.001 35.5198 324.482 10 293.001 10C261.521 10 236.001 35.5198 236.001 67C236.001 98.4802 261.521 124 293.001 124C324.482 124 350.001 98.4802 350.001 67ZM360.001 67C360.001 104.003 330.004 134 293.001 134C255.998 134 226.001 104.003 226.001 67C226.001 29.9969 255.998 0 293.001 0C330.004 0 360.001 29.9969 360.001 67Z" fill="#291E15"/>
<path d="M148.001 67C148.001 35.5198 122.482 10 91.0014 10C59.5211 10 34.0014 35.5198 34.0014 67C34.0014 98.4802 59.5211 124 91.0014 124C122.482 124 148.001 98.4802 148.001 67ZM158.001 67C158.001 104.003 128.004 134 91.0014 134C53.9983 134 24.0014 104.003 24.0014 67C24.0014 29.9969 53.9983 0 91.0014 0C128.004 0 158.001 29.9969 158.001 67Z" fill="#291E15"/>
<path d="M151.458 64.0332C164.614 53.9411 199.174 39.7613 232.442 63.956L226.561 72.0439C198.229 51.4391 168.722 63.3923 157.544 71.9668L151.458 64.0332Z" fill="#291E15"/>
<path d="M379.801 51.2979C382.398 50.359 385.264 51.7032 386.204 54.2998C387.142 56.8964 385.798 59.763 383.202 60.7022L359.702 69.2022L356.301 59.7979L379.801 51.2979Z" fill="#291E15"/>
<path d="M6.70157 51.2979C4.10493 50.359 1.23842 51.7032 0.299225 54.2998C-0.639672 56.8964 0.704572 59.763 3.30118 60.7022L26.8012 69.2022L30.2016 59.7979L6.70157 51.2979Z" fill="#291E15"/>
</svg>
