<svg width="245" height="172" viewBox="0 0 245 172" fill="none" xmlns="http://www.w3.org/2000/svg">
<path d="M93.8344 167.073C89.4344 165.548 81.001 136.894 77.3344 122.758L122.834 99.4087L165.834 122.758C159.034 152.111 151.001 165.803 147.834 168.979C137.034 173.173 126.668 170.727 122.834 168.979C120.834 170.885 108.834 172.315 104.834 170.409C100.834 168.503 99.3344 168.979 93.8344 167.073Z" fill="#FFFEFA"/>
<path d="M122.334 163.738C121.534 160.688 117.668 126.252 115.834 109.415C118.668 104.968 124.634 97.6932 125.834 104.174C127.334 112.274 123.334 167.55 122.334 163.738Z" fill="#C5BEB6"/>
<path d="M120.764 46.4358C134.249 69.8136 123.422 100.164 96.5831 114.224C69.7438 128.285 51.0983 122.906 24.3344 96.5496C8.83435 73.6771 20.9122 43.6263 47.7515 29.5656C74.5908 15.5049 107.28 23.058 120.764 46.4358Z" fill="#BE8F63"/>
<path d="M123.75 46.4358C110.266 69.8137 121.042 100.137 147.819 114.166C174.597 128.194 202.448 115.399 220.334 97.0262C233.834 77.0127 223.429 43.5355 196.651 29.5071C169.874 15.4787 137.235 23.058 123.75 46.4358Z" fill="#BE8F63"/>
<path d="M120.929 65.0999C139.067 65.0999 177.334 37.4622 166.556 15.3903C155.778 -6.6816 84.3343 -3.51771 75.3016 15.3903C66.269 34.2983 102.791 65.0999 120.929 65.0999Z" fill="#553A25"/>
<path d="M117.834 95.1201L118.834 62.2408H126.834V94.6436C164.434 135.052 206.834 109.892 223.334 92.261C194.534 142.581 144.334 122.44 122.834 106.08C66.0344 146.107 30.8344 111.639 20.3344 89.4019C64.7344 135.909 103.501 113.545 117.834 95.1201Z" fill="#553A25"/>
<ellipse cx="202.334" cy="74.1536" rx="4" ry="3.33558" fill="#543924"/>
<ellipse cx="183.334" cy="59.3818" rx="4" ry="3.81209" fill="#543924"/>
<ellipse cx="174.334" cy="82.2543" rx="4" ry="3.81209" fill="#543924"/>
<ellipse cx="4" cy="3.33558" rx="4" ry="3.33558" transform="matrix(-1 0 0 1 44.3344 70.818)" fill="#543924"/>
<ellipse cx="4" cy="3.81209" rx="4" ry="3.81209" transform="matrix(-1 0 0 1 63.3344 55.5697)" fill="#543924"/>
<ellipse cx="4" cy="3.81209" rx="4" ry="3.81209" transform="matrix(-1 0 0 1 72.3344 78.4422)" fill="#543924"/>
</svg>
